<?xml version="1.0" encoding="UTF-8" standalone="no"?>
<!DOCTYPE svg PUBLIC "-//W3C//DTD SVG 1.1//EN" "http://www.w3.org/Graphics/SVG/1.1/DTD/svg11.dtd">
<svg version="1.1" xmlns="http://www.w3.org/2000/svg" xmlns:xlink="http://www.w3.org/1999/xlink" preserveAspectRatio="xMidYMid meet" viewBox="0 0 640 640" width="300" height="300"><defs><path d="M279 152.2C268.95 166.45 254.87 181.99 259.37 185.2C267.35 190.87 279.13 181.4 285.21 162.21C291.29 143.03 298.79 122.72 312.83 121.94C326.86 121.16 320.53 158.61 332.17 152.2C343.82 145.79 321.03 129.74 336.04 124.87C351.05 120 493.52 210.41 541.35 320.94C589.18 431.47 543.04 611.73 324.91 614.6C106.79 617.46 20.14 456.05 82.1 329.76C144.07 203.47 278.57 120.38 286.08 127.79C289.35 131.01 286.74 141.22 279 152.2Z" id="b3bjvPZjtq"></path><path d="" id="aIIcJWTYa"></path><path d="" id="c2763NxrEk"></path><path d="M227.59 503.79C373.03 507.7 516.25 259.71 540.5 315.52C588.52 426.05 547.66 608.56 329.47 614.48C111.29 620.4 17.81 457.51 80.02 331.22C110.82 268.71 82.14 499.88 227.59 503.79Z" id="e4ydT3PoAm"></path><path d="M313.6 106.13C322.06 105.99 329 104.64 334.41 102.07C352.01 93.71 365.04 78.02 370.03 59.18C370.96 55.67 368.54 64.8 370.13 58.78C372.87 48.42 369.05 37.44 360.47 31.04C358.63 29.66 363.03 32.95 360.13 30.78C354.54 26.61 347.31 25.32 340.63 27.3C333.91 29.29 329.69 33.26 327.97 39.21C323.67 54.06 321.97 66.63 316 68.13C313.24 68.82 313 60.19 315.27 42.23C316.13 35.42 312.61 28.8 306.49 25.7C303 23.94 305.88 25.4 303.17 24.03C294.14 19.45 283.64 18.7 274.04 21.94C269.57 23.44 276.43 21.13 273.27 22.2C261.03 26.33 253.94 39.09 256.89 51.66C259.62 63.31 263.45 72.19 268.38 78.32C281.63 94.78 282.15 106.62 313.6 106.13Z" id="aPsJ4vxF1"></path><path d="M314.27 106.02C323.16 105.41 329.42 104.25 333.06 102.53C351.12 93.98 364.6 78.04 370.03 58.81C371.25 54.53 371.33 51.5 370.28 49.71C368.47 46.62 365.01 46.09 359.9 48.11C350.88 51.67 344.35 59.67 342.66 69.23C341.52 75.72 342.15 72.17 341.34 76.75C339.09 89.52 325.56 96.9 313.6 91.89C294.04 83.69 283.62 80.6 282.34 82.63C278.93 88.02 278.53 108.47 314.27 106.02Z" id="lnW0AAU0p"></path><path d="" id="a2brKj1ui9"></path><path d="M61.59 452.44C60.43 447.67 59.82 442.49 59.77 436.92C59.77 436.46 60.12 436.07 60.58 436.04C81.49 434.63 133.75 431.11 217.38 425.47L208.9 299.63L313.73 389.24L405.65 285.58L414.18 412.21C492.35 407.11 541.2 403.92 560.74 402.64C561.19 402.61 561.58 402.93 561.64 403.37C562.06 406.38 561.82 404.69 561.9 405.22C563.11 413.93 562.51 422.79 560.12 431.26C560.01 431.66 560.56 429.68 559.77 432.5C559.64 432.96 559.24 433.28 558.77 433.31C535.57 434.85 477.59 438.68 384.81 444.82L379.43 364.91L316.85 435.59L247.9 374.74L253.22 453.69L189.86 457.96C123.89 462.37 82.67 465.13 66.17 466.23C65.72 466.27 65.3 465.98 65.17 465.54C63.93 461.56 62.74 457.2 61.59 452.44Z" id="c1EsYJYTmB"></path></defs><g><g><g><use xlink:href="#b3bjvPZjtq" opacity="1" fill="#c95b55" fill-opacity="1"></use></g><g><g><use xlink:href="#aIIcJWTYa" opacity="1" fill-opacity="0" stroke="#000000" stroke-width="1" stroke-opacity="1"></use></g></g><g><g><use xlink:href="#c2763NxrEk" opacity="1" fill-opacity="0" stroke="#000000" stroke-width="1" stroke-opacity="1"></use></g></g><g><use xlink:href="#e4ydT3PoAm" opacity="1" fill="#ac4740" fill-opacity="1"></use><g><use xlink:href="#e4ydT3PoAm" opacity="1" fill-opacity="0" stroke="#ac4740" stroke-width="2" stroke-opacity="1"></use></g></g><g><use xlink:href="#aPsJ4vxF1" opacity="1" fill="#c95b55" fill-opacity="1"></use></g><g><use xlink:href="#lnW0AAU0p" opacity="1" fill="#ac4740" fill-opacity="1"></use><g><use xlink:href="#lnW0AAU0p" opacity="1" fill-opacity="0" stroke="#ac4740" stroke-width="1" stroke-opacity="1"></use></g></g><g><g><use xlink:href="#a2brKj1ui9" opacity="1" fill-opacity="0" stroke="#ac4740" stroke-width="1" stroke-opacity="1"></use></g></g><g><use xlink:href="#c1EsYJYTmB" opacity="1" fill="#f5eae6" fill-opacity="1"></use></g></g></g></svg>