<?xml version="1.0" encoding="UTF-8"?>
<svg viewBox="0 0 226.78 226.78" xmlns="http://www.w3.org/2000/svg">
<g>
<title>background</title>
<rect x="-1" y="-1" width="582" height="402" fill="none"/>
</g>
<g>
<title>Layer 1</title>
<g fill="#fff">
<path d="m39.722 149.02v-95.15l73.741 73.741 73.669-73.669v95.079h33.936c3.699-11.193 5.709-23.155 5.709-35.59 0-62.6-50.746-113.35-113.35-113.35-62.6 0-113.35 50.747-113.35 113.35 0 12.435 2.008 24.396 5.709 35.59h33.93v-0.001007z"/>
<path d="m163.54 172.08v-60.152l-49.495 49.495-49.148-49.148v59.806h-47.48c19.864 32.786 55.879 54.7 97.013 54.7 41.135 0 77.149-21.914 97.013-54.7h-47.903v-0.001007z"/>
</g>
</g>
</svg>
