<svg width="226.777" height="226.777" xmlns="http://www.w3.org/2000/svg">

 <g>
  <title>background</title>
  <rect fill="none" id="canvas_background" height="402" width="582" y="-1" x="-1"/>
 </g>
 <g>
  <title>Layer 1</title>
  <g id="XMR_2_">
   <path fill="#ffffff" id="svg_1" d="m39.722,149.020996l0,-95.150005l73.740997,73.741001l73.669006,-73.669003l0,95.079014l33.935989,0c3.699005,-11.193008 5.709,-23.155014 5.709,-35.590004c0,-62.599998 -50.745987,-113.346999 -113.346992,-113.346999c-62.599998,0 -113.347,50.747001 -113.347,113.346999c0,12.434998 2.008,24.396004 5.709,35.590004l33.93,0l0,-0.001007z"/>
   <path fill="#ffffff" id="svg_2" d="m163.539993,172.076996l0,-60.151993l-49.495003,49.49498l-49.147987,-49.14798l0,59.806l-47.480003,0c19.863998,32.78598 55.878998,54.699997 97.013,54.699997c41.135002,0 77.148994,-21.914001 97.012993,-54.699997l-47.903,0l0,-0.001007z"/>
  </g>
 </g>
</svg>